<?xml version="1.0" encoding="UTF-8" standalone="no"?>
<svg
   width="480.68262pt"
   height="479.48193pt"
   viewBox="0 0 480.68262 479.48193"
   version="1.2"
   id="svg93"
   xmlns="http://www.w3.org/2000/svg"
   xmlns:svg="http://www.w3.org/2000/svg">
  <defs
     id="defs80">
    <clipPath
       id="clip1">
      <path
         d="M 66,156.05859 H 546 V 635.94141 H 66 Z m 0,0"
         id="path74" />
    </clipPath>
    <clipPath
       id="clip2">
      <path
         d="M 65.261719,156.05859 H 546.73828 V 635.94141 H 65.261719 Z m 0,0"
         id="path77" />
    </clipPath>
  </defs>
  <g
     id="surface25764"
     transform="translate(-65.658694,-156.45947)">
    <g
       clip-path="url(#clip1)"
       clip-rule="nonzero"
       id="g84">
      <path
         style="fill:#000000;fill-opacity:1;fill-rule:evenodd;stroke:none"
         d="M 66.058594,636.73828 H 545.94141 V 156.85937 H 66.058594 Z m 0,0"
         id="path82" />
    </g>
    <g
       clip-path="url(#clip2)"
       clip-rule="nonzero"
       id="g88">
      <path
         style="fill:none;stroke:#000000;stroke-width:7.998;stroke-linecap:round;stroke-linejoin:round;stroke-miterlimit:10;stroke-opacity:1"
         d="M 660.58594,6351.4062 V 1552.6172 H 5459.4141 v 4798.789 H 660.58594"
         transform="matrix(0.1,0,0,-0.1,0,792)"
         id="path86" />
    </g>
    <path
       style="fill:#0000ff;fill-opacity:1;fill-rule:evenodd;stroke:#0000ff;stroke-width:7.998;stroke-linecap:round;stroke-linejoin:round;stroke-miterlimit:10;stroke-opacity:1"
       d="m 4731.5625,2640.3125 -0.9375,-30.1172 -2.8125,-30 -4.7266,-29.8047 -6.5625,-29.414 -8.4375,-28.9453 -10.1953,-28.3594 -11.9922,-27.6563 -13.6718,-26.875 -15.3516,-25.9375 -16.9531,-24.9218 -18.4766,-23.8282 -19.9219,-22.6172 -21.3281,-21.3281 -22.6172,-19.9219 -23.789,-18.4765 -24.961,-16.9531 -25.9375,-15.3516 -26.875,-13.6719 -27.6562,-11.9922 -28.3594,-10.1953 -28.9453,-8.3984 -29.4531,-6.6016 -29.7657,-4.7265 -30,-2.8125 -30.1172,-0.9375 -30.1562,0.9375 -30,2.8125 -29.7656,4.7265 -29.4532,6.6016 -28.9453,8.3984 -28.3593,10.1953 -27.6563,11.9922 -26.875,13.6719 -25.9375,15.3516 -24.9219,16.9531 -23.8281,18.4765 -22.6172,19.9219 -21.3281,21.3281 -19.9219,22.6172 -18.4765,23.8282 -16.9532,24.9218 -15.3515,25.9375 -13.6719,26.875 -11.9922,27.6563 -10.1953,28.3594 -8.3984,28.9453 -6.6016,29.414 -4.6875,29.8047 -2.8516,30 -0.9375,30.1172 0.9375,30.1563 2.8516,30 4.6875,29.7656 6.6016,29.4531 8.3984,28.9453 10.1953,28.3594 11.9922,27.6562 13.6719,26.875 15.3515,25.9375 16.9532,24.9219 18.4765,23.8281 19.9219,22.6172 21.3281,21.3282 22.6172,19.9218 23.8281,18.4766 24.9219,16.9531 25.9375,15.3516 26.875,13.6719 27.6563,11.9921 28.3593,10.1954 28.9453,8.3984 29.4532,6.6016 29.7656,4.7265 30,2.8125 30.1562,0.9375 30.1172,-0.9375 30,-2.8125 29.7657,-4.7265 29.4531,-6.6016 28.9453,-8.3984 28.3594,-10.1954 27.6562,-11.9921 26.875,-13.6719 25.9375,-15.3516 24.961,-16.9531 23.789,-18.4766 22.6172,-19.9218 21.3281,-21.3282 19.9219,-22.6172 18.4766,-23.8281 16.9531,-24.9219 15.3516,-25.9375 13.6718,-26.875 11.9922,-27.6562 10.1953,-28.3594 8.4375,-28.9453 6.5625,-29.4531 4.7266,-29.7656 2.8125,-30 0.9375,-30.1563"
       transform="matrix(0.1,0,0,-0.1,0,792)"
       id="path90" />
  </g>
</svg>
