<?xml version="1.0" encoding="UTF-8" standalone="no"?>
<svg
   width="480.68262pt"
   height="479.48193pt"
   viewBox="0 0 480.68262 479.48193"
   version="1.2"
   id="svg70"
   xmlns="http://www.w3.org/2000/svg"
   xmlns:svg="http://www.w3.org/2000/svg">
  <defs
     id="defs57">
    <clipPath
       id="clip1">
      <path
         d="M 66,156.05859 H 546 V 635.94141 H 66 Z m 0,0"
         id="path51" />
    </clipPath>
    <clipPath
       id="clip2">
      <path
         d="M 65.261719,156.05859 H 546.73828 V 635.94141 H 65.261719 Z m 0,0"
         id="path54" />
    </clipPath>
  </defs>
  <g
     id="surface17350"
     transform="translate(-65.658694,-156.45947)">
    <g
       clip-path="url(#clip1)"
       clip-rule="nonzero"
       id="g61">
      <path
         style="fill:#000000;fill-opacity:1;fill-rule:evenodd;stroke:none"
         d="M 66.058594,636.73828 H 545.94141 V 156.85937 H 66.058594 Z m 0,0"
         id="path59" />
    </g>
    <g
       clip-path="url(#clip2)"
       clip-rule="nonzero"
       id="g65">
      <path
         style="fill:none;stroke:#000000;stroke-width:7.998;stroke-linecap:round;stroke-linejoin:round;stroke-miterlimit:10;stroke-opacity:1"
         d="M 660.58594,6351.4062 V 1552.6172 H 5459.4141 v 4798.789 H 660.58594"
         transform="matrix(0.1,0,0,-0.1,0,792)"
         id="path63" />
    </g>
    <path
       style="fill:#0000ff;fill-opacity:1;fill-rule:evenodd;stroke:#0000ff;stroke-width:7.998;stroke-linecap:round;stroke-linejoin:round;stroke-miterlimit:10;stroke-opacity:1"
       d="m 3531.875,3960 -0.9375,-30.1172 -2.8516,-30.039 -4.6875,-29.7657 -6.6015,-29.414 -8.3985,-28.9453 -10.2343,-28.3594 -11.9532,-27.6953 -13.6718,-26.836 -15.3516,-25.9765 -16.9531,-24.9219 -18.4766,-23.8281 -19.9219,-22.6172 -21.3281,-21.2891 -22.6172,-19.9609 -23.8281,-18.4766 -24.9219,-16.9531 -25.9375,-15.3125 -26.875,-13.7109 -27.6562,-11.9532 -28.3985,-10.2343 -28.9453,-8.3985 -29.414,-6.5625 -29.7657,-4.7265 -30,-2.8516 -30.1562,-0.9375 -30.1172,0.9375 -30,2.8516 -29.8047,4.7265 -29.414,6.5625 -28.9454,8.3985 -28.3593,10.2343 -27.6563,11.9532 -26.875,13.7109 -25.9375,15.3125 -24.9609,16.9531 -23.8281,18.4766 -22.5782,19.9609 -21.3281,21.2891 -19.9219,22.6172 -18.4765,23.8281 -16.9532,24.9219 -15.3515,25.9765 -13.711,26.836 -11.9531,27.6953 -10.1953,28.3594 -8.4375,28.9453 -6.5625,29.414 -4.7266,29.7657 -2.8125,30.039 -0.9765,30.1172 0.9765,30.1172 2.8125,30.0391 4.7266,29.7656 6.5625,29.414 8.4375,28.9453 10.1953,28.3594 11.9531,27.6953 13.711,26.836 15.3515,25.9765 16.9532,24.9219 18.4765,23.8281 19.9219,22.6172 21.3281,21.2891 22.5782,19.9609 23.8281,18.4766 24.9609,16.9531 25.9375,15.3125 26.875,13.7109 27.6563,11.9532 28.3593,10.2343 28.9454,8.3985 29.414,6.5625 29.8047,4.7265 30,2.8516 30.1172,0.9375 30.1562,-0.9375 30,-2.8516 29.7657,-4.7265 29.414,-6.5625 28.9453,-8.3985 28.3985,-10.2343 27.6562,-11.9532 26.875,-13.7109 25.9375,-15.3125 24.9219,-16.9531 23.8281,-18.4766 22.6172,-19.9609 21.3281,-21.2891 19.9219,-22.6172 18.4766,-23.8281 16.9531,-24.9219 15.3516,-25.9765 13.6718,-26.836 11.9532,-27.6953 10.2343,-28.3594 8.3985,-28.9453 6.6015,-29.414 4.6875,-29.7656 2.8516,-30.0391 0.9375,-30.1172"
       transform="matrix(0.1,0,0,-0.1,0,792)"
       id="path67" />
  </g>
</svg>
